<svg width="68" height="68" viewBox="0 0 68 68" fill="none" xmlns="http://www.w3.org/2000/svg">
<path d="M34 57.1199C21.216 57.1199 10.88 46.7839 10.88 33.9999C10.88 21.2159 21.216 10.8799 34 10.8799C46.784 10.8799 57.12 21.2159 57.12 33.9999C57.12 46.7839 46.784 57.1199 34 57.1199ZM34 13.5999C22.712 13.5999 13.6 22.7119 13.6 33.9999C13.6 45.2879 22.712 54.3999 34 54.3999C45.288 54.3999 54.4 45.2879 54.4 33.9999C54.4 22.7119 45.288 13.5999 34 13.5999Z" fill="#414042"/>
<path d="M21.76 32.6399H46.24V35.3599H21.76V32.6399Z" fill="#414042"/>
<path d="M35.36 22.6665L35.36 47.1465L32.64 47.1465L32.64 22.6665L35.36 22.6665Z" fill="#414042"/>
</svg>
