<svg width="136" height="136" viewBox="0 0 136 136" fill="none" xmlns="http://www.w3.org/2000/svg" xmlns:xlink="http://www.w3.org/1999/xlink">
<path d="M68,114.24C42.432,114.24 21.76,93.568 21.76,68C21.76,42.432 42.432,21.76 68,21.76C93.568,21.76 114.24,42.432 114.24,68C114.24,93.568 93.568,114.24 68,114.24ZM68,27.2C45.424,27.2 27.2,45.424 27.2,68C27.2,90.576 45.424,108.8 68,108.8C90.576,108.8 108.8,90.576 108.8,68C108.8,45.424 90.576,27.2 68,27.2Z" fill="#414042"/>
<rect  x="43.52" y="65.28" width="48.96" height="5.44" fill="#414042"/>
<path d="M43.52,67.093L92.48,67.093L92.48,72.533L43.52,72.533L43.52,67.093Z" transform="rotate(180 68 69.813)" fill="#414042"/>
</svg>
