<svg width="232" height="66" viewBox="0 0 232 66" fill="none" xmlns="http://www.w3.org/2000/svg" xmlns:xlink="http://www.w3.org/1999/xlink">
<path d="M51.162,32.921C50.174,33.432 49.282,34.102 48.517,34.965C47.752,35.827 47.115,36.849 46.605,38.063C46.096,39.277 45.873,40.65 45.873,42.151C45.873,42.151 45.968,50.232 46,56.748C46,61.092 46.542,64.35 45.873,64.925C45.267,65.436 36.728,65.532 36.409,64.925C36.122,64.318 36.409,58.697 36.409,58.697L36.409,44.004C36.409,40.682 36.186,37.903 35.74,35.667C35.294,33.4 34.848,31.611 34.338,30.238C33.732,28.609 32.49,27.427 32.362,26.341C32.235,25.255 38.225,22.604 39.5,22.955C39.978,23.083 40.966,24.967 41.539,25.862C41.985,26.628 42.431,27.938 42.718,29.184C43.005,30.429 43.355,33.304 43.801,32.09C44.247,30.908 46.51,26.564 48.613,25.159C50.716,23.754 53.106,23.051 55.75,23.051C57.025,23.051 60.753,23.786 60.721,24.808C60.721,25.83 59.128,32.761 58.236,33.176C57.343,33.623 55.559,32.25 54.189,32.25C53.201,32.25 52.182,32.505 51.194,32.984L51.162,32.921Z" fill="#20605C"/>
<path d="M61.008,35.412C62.027,32.569 63.429,30.206 65.246,28.321C67.03,26.405 69.165,24.967 71.586,24.009C74.008,23.051 76.621,22.572 79.457,22.572C81.942,22.572 84.045,22.859 85.798,23.498C87.55,24.105 88.952,24.935 90.067,25.99C91.183,27.044 91.979,28.289 92.521,29.727C93.062,31.164 93.317,32.729 93.317,34.39C93.317,36.402 92.776,38.287 91.66,40.075C90.545,41.864 88.952,43.461 86.881,44.802C84.81,46.176 82.324,47.294 79.361,48.028C75.06,49.114 69.866,49.146 69.483,49.306C69.005,49.53 69.643,51.478 69.993,52.628C70.344,53.778 71.14,55.055 71.841,55.918C72.51,56.78 73.434,57.451 74.518,57.962C75.633,58.473 77.003,58.728 78.66,58.728C79.871,58.728 81.177,58.601 82.547,58.313C83.918,58.026 85.192,57.706 86.371,57.323C87.741,56.876 89.43,56.237 90.418,55.822C91.406,55.407 93.317,61.316 92.903,61.731C92.489,62.146 89.908,63.072 88.251,63.647C86.817,64.158 85.16,64.606 83.28,64.989C81.4,65.372 79.425,65.564 77.322,65.564C74.104,65.564 71.395,65.085 69.101,64.126C66.839,63.168 64.991,61.795 63.557,60.006C62.123,58.249 61.071,56.109 60.402,53.618C59.733,51.127 59.414,48.348 59.414,45.314C59.414,41.608 59.924,38.319 60.976,35.508L61.008,35.412ZM74.199,30.301C73.02,31.164 72.064,32.282 71.331,33.623C70.599,34.997 69.898,36.977 69.388,38.862C68.942,40.522 68.464,43.014 69.26,43.333C69.738,43.493 74.167,42.886 76.015,42.279C77.864,41.704 79.361,40.97 80.54,40.107C81.719,39.245 82.547,38.319 83.057,37.328C83.599,36.338 83.854,35.348 83.854,34.326C83.854,32.729 83.376,31.419 82.452,30.461C81.496,29.503 80.285,28.992 78.724,28.992C76.908,28.992 75.41,29.439 74.199,30.27L74.199,30.301Z" fill="#20605C"/>
<path d="M97.715,35.444C98.734,32.601 100.136,30.238 101.952,28.353C103.737,26.437 105.872,24.999 108.293,24.041C110.715,23.083 113.36,22.604 116.164,22.604C118.649,22.604 120.752,22.891 122.504,23.53C124.257,24.137 125.659,24.967 126.774,26.022C127.889,27.076 128.686,28.321 129.228,29.759C129.769,31.196 130.024,32.761 130.024,34.422C130.024,36.434 129.483,38.319 128.367,40.107C127.252,41.896 125.659,43.493 123.588,44.834C121.517,46.208 119.031,47.326 116.068,48.06C111.766,49.146 106.573,49.178 106.19,49.338C105.744,49.562 106.35,51.51 106.7,52.66C107.051,53.81 107.847,55.087 108.548,55.95C109.249,56.812 110.141,57.483 111.225,57.994C112.34,58.505 113.71,58.76 115.367,58.76C116.578,58.76 117.884,58.633 119.254,58.345C120.624,58.058 121.899,57.738 123.078,57.355C124.448,56.908 126.137,56.269 127.125,55.854C128.112,55.439 130.024,61.348 129.61,61.763C129.196,62.178 126.615,63.104 124.958,63.679C123.524,64.19 121.867,64.638 119.987,65.021C118.107,65.404 116.132,65.596 114.029,65.596C110.81,65.596 108.07,65.117 105.808,64.158C103.546,63.2 101.697,61.827 100.264,60.038C98.83,58.281 97.778,56.141 97.109,53.65C96.44,51.159 96.121,48.38 96.121,45.345C96.121,41.64 96.631,38.351 97.651,35.54L97.715,35.444ZM110.906,30.333C109.727,31.196 108.771,32.314 108.038,33.655C107.305,35.029 106.604,37.009 106.095,38.894C105.617,40.554 105.171,43.046 105.967,43.365C106.445,43.525 110.874,42.918 112.722,42.311C114.57,41.736 116.068,41.002 117.247,40.139C118.426,39.277 119.254,38.351 119.764,37.36C120.274,36.37 120.561,35.38 120.561,34.358C120.561,32.761 120.083,31.483 119.159,30.493C118.203,29.535 116.992,29.024 115.431,29.024C113.614,29.024 112.117,29.471 110.906,30.302L110.906,30.333Z" fill="#20605C"/>
<path d="M198.69,35.476C199.71,32.633 201.112,30.27 202.928,28.385C204.712,26.469 206.848,25.031 209.27,24.073C211.69,23.115 214.336,22.636 217.14,22.636C219.624,22.636 221.728,22.923 223.48,23.562C225.232,24.169 226.634,24.999 227.75,26.053C228.866,27.107 229.662,28.353 230.204,29.79C230.746,31.228 231,32.793 231,34.454C231,36.466 230.458,38.351 229.344,40.139C228.228,41.928 226.634,43.525 224.564,44.866C222.492,46.24 220.008,47.358 217.076,48.092C212.774,49.178 207.58,49.21 207.198,49.37C206.72,49.594 207.358,51.542 207.708,52.692C208.058,53.842 208.854,55.119 209.556,55.982C210.224,56.844 211.15,57.515 212.232,58.026C213.348,58.537 214.718,58.792 216.374,58.792C217.586,58.792 218.892,58.665 220.262,58.377C221.632,58.09 222.906,57.77 224.086,57.387C225.456,56.94 227.144,56.301 228.132,55.886C229.12,55.471 231.032,61.38 230.618,61.795C230.204,62.21 227.622,63.136 225.966,63.711C224.532,64.222 222.874,64.669 220.994,65.053C219.114,65.436 217.14,65.628 215.036,65.628C211.85,65.628 209.11,65.149 206.848,64.19C204.586,63.232 202.738,61.859 201.304,60.07C199.87,58.313 198.818,56.173 198.149,53.682C197.48,51.191 197.161,48.412 197.161,45.377C197.161,41.672 197.671,38.382 198.69,35.572L198.69,35.476ZM211.882,30.365C210.702,31.228 209.746,32.346 209.046,33.687C208.314,35.061 207.612,37.041 207.102,38.925C206.656,40.586 206.178,43.078 206.974,43.397C207.452,43.557 211.882,42.95 213.73,42.343C215.578,41.768 217.108,41.034 218.254,40.171C219.434,39.309 220.262,38.382 220.772,37.392C221.282,36.402 221.568,35.412 221.568,34.39C221.568,32.793 221.09,31.515 220.166,30.525C219.21,29.567 218,29.056 216.438,29.056C214.622,29.056 213.092,29.503 211.914,30.333L211.882,30.365Z" fill="#20605C"/>
<path d="M137.225,62.657C135.728,60.9 134.995,58.697 134.995,55.982L134.995,11.648C134.995,11.648 134.995,7.464 134.995,6.378C134.995,5.292 144.427,3.12 144.427,4.621L144.427,55.055C144.427,56.333 144.682,57.227 145.191,57.706C145.701,58.217 146.402,58.377 147.709,58.473C148.983,58.569 150.767,57.994 151.755,57.802C152.743,57.611 153.826,63.392 152.934,63.775C152.424,63.999 151.405,64.318 150.513,64.51C149.748,64.733 148.824,64.925 147.772,65.053C146.721,65.18 145.542,65.244 144.204,65.244C141.049,65.244 138.723,64.35 137.257,62.625L137.225,62.657Z" fill="#20605C"/>
<path d="M159.02,62.657C157.491,60.9 156.694,58.665 156.694,55.886C156.694,55.886 156.694,24.648 156.694,23.881C156.694,22.795 159.434,22.795 161.92,22.795C164.15,22.795 166.158,23.019 166.158,24.009C166.158,25.351 166.158,55.055 166.158,55.055C166.158,56.333 166.349,57.195 166.731,57.643C167.113,58.09 167.751,58.505 168.515,58.505C168.739,58.505 169.535,58.505 170.618,58.154C171.67,57.802 172.371,63.839 171.606,64.126C170.842,64.414 169.408,64.925 168.643,65.053C167.91,65.149 166.667,65.308 165.711,65.308C162.78,65.308 160.55,64.446 158.988,62.689L159.02,62.657Z" fill="#20605C"/>
<path d="M178.648,64.957C178.648,63.392 178.648,30.301 178.648,30.301C178.648,30.301 171.67,30.301 171.096,30.301C170.459,30.301 170.714,28.736 170.682,27.107C170.65,25.351 170.555,23.562 171.192,23.562C171.957,23.562 178.393,23.562 178.393,23.562C178.393,22.795 178.361,19.154 178.361,18.388C178.361,16.184 178.648,14.299 179.477,12.575C180.273,10.85 181.357,9.444 182.695,8.358C184.033,7.24 185.626,6.41 187.411,5.835C189.195,5.26 191.075,4.973 193.019,4.973C195.185,4.973 196.938,5.324 198.308,6.027C199.678,6.729 201.24,8.007 201.686,8.486C202.132,8.965 198.372,14.491 197.639,13.884C197.129,13.469 196.97,13.405 196.109,12.958C195.249,12.511 194.357,12.383 193.56,12.383C193.05,12.383 192.541,12.383 191.808,12.511C191.107,12.638 190.406,12.958 189.737,13.405C189.068,13.884 188.494,14.555 188.048,15.449C187.57,16.343 187.634,18.707 187.634,19.569C187.634,20.336 187.315,23.594 187.825,23.594C188.207,23.594 196.683,23.594 197.511,23.594C198.85,23.594 197.384,30.333 196.715,30.333C196.046,30.333 188.08,30.333 188.08,30.333C188.08,30.333 188.08,63.839 188.08,64.989C188.08,66.139 178.616,66.522 178.616,64.989L178.648,64.957Z" fill="#20605C"/>
<path d="M165.775,10.562C166.635,11.616 167.082,12.99 167.082,14.619C167.082,16.248 166.636,17.653 165.743,18.771C164.851,19.889 163.545,20.432 161.792,20.432C160.167,20.432 158.893,19.889 158,18.803C157.108,17.717 156.662,16.407 156.662,14.874C156.662,13.149 157.108,11.744 158,10.626C158.893,9.508 160.231,8.965 162.015,8.965C163.64,8.965 164.883,9.508 165.775,10.562Z" fill="#20605C"/>
<path d="M102.335,6.442C101.793,7.177 103.227,7.815 104.693,8.422C106.158,9.029 112.053,11.521 113.105,12.127C116.068,13.788 118.426,14.012 121.58,14.204C123.205,14.299 125.277,14.587 125.277,14.587C125.5,15.769 127.985,16.471 126.041,16.471C123.142,16.695 119.7,16.184 116.514,16.28C114.443,16.344 100.455,11.552 98.639,11.169C95.58,10.626 89.016,10.275 84.842,10.435C82.643,10.53 75.824,12.032 74.836,12C71.682,11.968 71.268,12.447 68.145,12.702C64.768,12.99 61.486,11.521 58.267,10.339C53.998,8.774 50.206,9.828 46.191,11.872C43.419,13.277 36.855,13.437 31.693,14.108L31.598,14.108C28.634,14.491 25.958,14.683 25.066,16.28L26.404,57.259L26.404,64.286C26.404,65.372 14.104,65.787 14.104,64.286C14.104,62.785 14.104,56.972 14.104,56.972C14.104,56.972 15.475,21.869 15.252,17.11C15.028,12.351 4.036,11.584 -0.903,11.904C-0.903,11.904 -1.19,10.53 -0.776,9.157C-0.712,8.965 5.087,8.454 5.183,8.295C5.342,8.007 -0.33,7.304 -0.362,7.017C-0.425,6.059 -0.648,5.037 0.594,3.823C0.817,3.631 1.008,3.408 1.901,3.631C4.577,4.334 10.695,6.218 14.837,5.612C16.112,5.42 18.438,5.835 19.107,5.867C19.776,5.867 21.592,6.059 24.046,6.123C26.499,6.186 31.598,5.995 34.242,5.995C36.887,5.995 41.029,5.037 42.814,3.599C48.326,-0.809 53.456,-0.745 59.606,1.523C66.679,4.11 66.424,5.1 73.753,5.42C79.393,5.675 81.4,4.015 85.925,3.919C90.45,3.823 94.178,5.675 98.001,3.535C99.085,2.929 104.884,1.523 105.585,1.076C106.127,0.725 108.293,-0.777 110.81,1.076C111.416,1.523 111.543,1.076 111.257,1.555C110.97,2.034 102.813,5.739 102.367,6.346L102.335,6.442Z" fill="#20605C"/>
</svg>
